<svg width="234" height="22" viewBox="0 0 234 22" fill="none" xmlns="http://www.w3.org/2000/svg">
<path d="M28.0186 20.9998V14.6998H8.15859V13.2898H27.4486V8.18984H8.15859V6.83984H28.0186V0.539843H0.0585938V20.9998H28.0186Z" fill="white"/>
<path d="M44.2172 20.9998V10.1398L52.3172 20.9998H60.5372L68.6372 10.1698V20.9998H76.7372V0.539843H67.0772L56.5172 14.3698L45.9572 0.539843H36.1172V20.9998H44.2172Z" fill="white"/>
<path d="M85.125 20.9998H93.225V17.0998H106.305C111.375 17.0998 115.425 14.8798 115.425 8.36984C115.425 2.24984 111.375 0.539843 106.305 0.539843H85.125V20.9998ZM105.285 7.43984C106.335 7.43984 107.025 7.64984 107.025 8.81984C107.025 9.86984 106.335 10.1998 105.285 10.1998H93.225V7.43984H105.285Z" fill="white"/>
<path d="M139.828 21.4498C152.098 21.4498 157.168 18.0598 157.168 10.7698C157.168 3.47984 152.098 0.0898438 139.828 0.0898438C127.558 0.0898438 122.488 3.47984 122.488 10.7698C122.488 18.0598 127.558 21.4498 139.828 21.4498ZM139.828 14.5498C132.538 14.5498 130.588 13.7698 130.588 10.7698C130.588 7.76984 132.538 6.98984 139.828 6.98984C147.118 6.98984 148.918 7.76984 148.918 10.7698C148.918 13.7698 147.118 14.5498 139.828 14.5498Z" fill="white"/>
<path d="M173.077 14.0998V0.539843H164.977V20.9998H191.707V14.0998H173.077Z" fill="white"/>
<path d="M216.252 21.4498C228.522 21.4498 233.592 18.0598 233.592 10.7698C233.592 3.47984 228.522 0.0898438 216.252 0.0898438C203.982 0.0898438 198.912 3.47984 198.912 10.7698C198.912 18.0598 203.982 21.4498 216.252 21.4498ZM216.252 14.5498C208.962 14.5498 207.012 13.7698 207.012 10.7698C207.012 7.76984 208.962 6.98984 216.252 6.98984C223.542 6.98984 225.342 7.76984 225.342 10.7698C225.342 13.7698 223.542 14.5498 216.252 14.5498Z" fill="white"/>
</svg>
