<svg width="51" height="51" viewBox="0 0 51 51" fill="none" xmlns="http://www.w3.org/2000/svg">
<path d="M15.3576 29.0177L0.0906288 29.0177V21.0632H23.3123L28.937 26.6879L28.9369 50.0906L20.9824 50.0906V34.6424L10.1347 45.49L4.51005 39.8654L15.3576 29.0177Z" fill="#F4EA70"/>
<path d="M23.3123 21.0632H0.0906288V29.0177L15.3576 29.0177L4.51005 39.8654L10.1347 45.49L20.9824 34.6424V50.0906L28.9369 50.0906L28.937 26.6879L23.3123 21.0632Z" fill="#F4EA70"/>
<path d="M10.1347 4.50997L4.50997 10.1347L13.1657 18.7905H24.2536L31.2097 25.7465V36.8344L39.8653 45.49L45.49 39.8653L34.6424 29.0177H50.0906L50.0905 21.0631H34.5616L45.49 10.1347L39.8653 4.50997L28.9369 15.4384L28.9369 0.0905595L20.9823 0.0905565L20.9823 15.3576L10.1347 4.50997Z" fill="white"/>
</svg>
