<svg width="300" height="51" viewBox="0 0 300 51" fill="none" xmlns="http://www.w3.org/2000/svg">
<path d="M94.0186 34.9998V28.6998H74.1586V27.2898H93.4486V22.1898H74.1586V20.8398H94.0186V14.5398H66.0586V34.9998H94.0186Z" fill="white"/>
<path d="M110.217 34.9998V24.1398L118.317 34.9998H126.537L134.637 24.1698V34.9998H142.737V14.5398H133.077L122.517 28.3698L111.957 14.5398H102.117V34.9998H110.217Z" fill="white"/>
<path d="M151.125 34.9998H159.225V31.0998H172.305C177.375 31.0998 181.425 28.8798 181.425 22.3698C181.425 16.2498 177.375 14.5398 172.305 14.5398H151.125V34.9998ZM171.285 21.4398C172.335 21.4398 173.025 21.6498 173.025 22.8198C173.025 23.8698 172.335 24.1998 171.285 24.1998H159.225V21.4398H171.285Z" fill="white"/>
<path d="M205.828 35.4498C218.098 35.4498 223.168 32.0598 223.168 24.7698C223.168 17.4798 218.098 14.0898 205.828 14.0898C193.558 14.0898 188.488 17.4798 188.488 24.7698C188.488 32.0598 193.558 35.4498 205.828 35.4498ZM205.828 28.5498C198.538 28.5498 196.588 27.7698 196.588 24.7698C196.588 21.7698 198.538 20.9898 205.828 20.9898C213.118 20.9898 214.918 21.7698 214.918 24.7698C214.918 27.7698 213.118 28.5498 205.828 28.5498Z" fill="white"/>
<path d="M239.077 28.0998V14.5398H230.977V34.9998H257.707V28.0998H239.077Z" fill="white"/>
<path d="M282.252 35.4498C294.522 35.4498 299.592 32.0598 299.592 24.7698C299.592 17.4798 294.522 14.0898 282.252 14.0898C269.982 14.0898 264.912 17.4798 264.912 24.7698C264.912 32.0598 269.982 35.4498 282.252 35.4498ZM282.252 28.5498C274.962 28.5498 273.012 27.7698 273.012 24.7698C273.012 21.7698 274.962 20.9898 282.252 20.9898C289.542 20.9898 291.342 21.7698 291.342 24.7698C291.342 27.7698 289.542 28.5498 282.252 28.5498Z" fill="white"/>
<path d="M15.3576 29.0177L0.0906288 29.0177V21.0632H23.3123L28.937 26.6879L28.9369 50.0906L20.9824 50.0906V34.6424L10.1347 45.49L4.51005 39.8654L15.3576 29.0177Z" fill="#F4EA70"/>
<path d="M23.3123 21.0632H0.0906288V29.0177L15.3576 29.0177L4.51005 39.8654L10.1347 45.49L20.9824 34.6424V50.0906L28.9369 50.0906L28.937 26.6879L23.3123 21.0632Z" fill="#F4EA70"/>
<path d="M10.1347 4.50997L4.50997 10.1347L13.1657 18.7905H24.2536L31.2097 25.7465V36.8344L39.8653 45.49L45.49 39.8653L34.6424 29.0177H50.0906L50.0905 21.0631H34.5616L45.49 10.1347L39.8653 4.50997L28.9369 15.4384L28.9369 0.0905595L20.9823 0.0905565L20.9823 15.3576L10.1347 4.50997Z" fill="white"/>
</svg>
