<svg width="51" height="51" viewBox="0 0 51 51" fill="none" xmlns="http://www.w3.org/2000/svg">
<path d="M15.3575 29.0177L0.0905068 29.0177V21.0632H23.3121L28.9368 26.6879L28.9368 50.0906L20.9823 50.0906V34.6424L10.1346 45.49L4.50992 39.8654L15.3575 29.0177Z" fill="#61D290"/>
<path d="M23.3121 21.0632H0.0905068V29.0177L15.3575 29.0177L4.50992 39.8654L10.1346 45.49L20.9823 34.6424V50.0906L28.9368 50.0906L28.9368 26.6879L23.3121 21.0632Z" fill="#61D290"/>
<path d="M10.1346 4.50997L4.50984 10.1347L13.1656 18.7905H24.2535L31.2096 25.7465V36.8344L39.8652 45.49L45.4899 39.8653L34.6422 29.0177H50.0904L50.0904 21.0631H34.5615L45.4899 10.1347L39.8652 4.50997L28.9368 15.4384L28.9368 0.0905595L20.9822 0.0905565L20.9822 15.3576L10.1346 4.50997Z" fill="white"/>
</svg>
