<svg width="230" height="59" viewBox="0 0 230 59" fill="none" xmlns="http://www.w3.org/2000/svg">
<path fill-rule="evenodd" clip-rule="evenodd" d="M176.824 58.7543L179.93 44.165H3.1014L0 58.7543H176.824Z" fill="#FFFFFF"/>
<path fill-rule="evenodd" clip-rule="evenodd" d="M48.2465 18.6064H41.6708L35.1333 49.0319H41.7111L48.2465 18.6064Z" fill="#FFFFFF"/>
<path fill-rule="evenodd" clip-rule="evenodd" d="M71.291 18.6064H52.9051L46.4099 49.0319H64.9992L66.1856 43.5121H54.1698L55.8031 35.9439H66.2237L67.41 30.4666H56.9894L58.3389 24.1283H70.1047L71.291 18.6064Z" fill="#FFFFFF"/>
<path fill-rule="evenodd" clip-rule="evenodd" d="M28.0799 34.3589C27.3046 37.9554 25.1374 42.3364 20.3984 43.2758C19.4218 43.4391 18.5194 43.4815 17.744 43.4815H14.6384L18.7249 24.2567H21.5424C22.2394 24.2567 23.1799 24.297 23.915 24.42C28.2451 25.1558 29.1434 29.5729 28.0799 34.3589ZM25.5293 18.809C24.2625 18.6436 22.5889 18.6055 21.5657 18.6055H13.2741L6.77686 49.0309H17.7292C18.7079 49.0309 19.9324 48.9906 20.7946 48.8719C29.37 47.8052 33.5391 41.59 34.7636 35.2496C36.4816 26.4175 33.3781 19.9541 25.5293 18.809Z" fill="#FFFFFF"/>
<path fill-rule="evenodd" clip-rule="evenodd" d="M180.546 18.6064H157.506L156.279 24.2471H164.531L159.222 49.0319H165.797L171.111 24.2471H179.324L180.546 18.6064Z" fill="#FFFFFF"/>
<path fill-rule="evenodd" clip-rule="evenodd" d="M125.162 33.8695C124.099 38.7785 122.099 43.889 116.543 43.889C111.187 43.889 110.454 38.8591 111.558 33.8695C112.617 28.9626 114.621 23.8521 120.176 23.8521C125.531 23.8521 126.268 28.8777 125.162 33.8695ZM120.654 18.2793C110.111 18.2793 106.105 25.4361 104.427 33.8207C102.713 42.2032 106.27 49.36 115.871 49.36C126.412 49.36 130.416 42.2032 132.092 33.8207C133.806 25.4361 130.253 18.2793 120.654 18.2793Z" fill="#FFFFFF"/>
<path fill-rule="evenodd" clip-rule="evenodd" d="M135.442 27.5605C135.442 31.1569 137.649 32.9191 139.73 34.5137L143.204 37.0902C143.899 37.6224 144.553 38.072 145.043 38.6445C145.492 39.1344 145.858 39.6242 145.858 40.4025C145.858 41.5051 145.329 42.2007 144.592 42.6926C143.204 43.5939 141.041 43.5939 139.73 43.5939C137.649 43.5939 134.423 42.981 133.192 42.4869L131.233 48.0512C133.601 48.9079 137.402 49.2769 140.141 49.2769C143.45 49.2769 145.818 48.8295 147.822 47.9685C151.415 46.4545 153.214 43.632 153.214 40.3219C153.214 38.3604 152.561 37.0499 151.663 35.8645C150.926 34.923 149.741 33.8988 148.394 32.8767L145.248 30.5059C143.655 29.3205 142.467 28.4193 142.467 27.0282C142.467 25.722 143.367 24.5769 145.043 24.3712C146.066 24.2482 147.004 24.2482 148.557 24.2482H153.54L154.766 18.6055H149.21C147.617 18.6055 145.532 18.6055 143.738 18.809C139.448 19.2989 135.442 22.3673 135.442 27.5605Z" fill="#FFFFFF"/>
<path fill-rule="evenodd" clip-rule="evenodd" d="M96.3769 29.3205C95.9702 31.8546 94.2521 33.411 92.0468 33.9433C91.5151 34.0621 90.5321 34.1448 89.9644 34.1448H87.3079L89.4327 24.2079H92.2904C93.106 24.2079 93.7204 24.2885 94.2119 24.4518C95.8452 24.984 96.8281 26.5808 96.3769 29.3205ZM95.3961 18.809C94.6207 18.686 93.5149 18.6055 92.4133 18.6055H84.1217L77.5842 49.0309H84.1217L86.1215 39.7493H89.922C91.9218 39.7493 93.231 39.5436 94.5 39.1747C99.1966 37.7433 102.222 33.8182 102.914 29.645C103.938 23.9619 101.08 19.7484 95.3961 18.809Z" fill="#FFFFFF"/>
<path fill-rule="evenodd" clip-rule="evenodd" d="M211.352 18.5818C211.352 18.5818 215.233 0.292215 215.252 0.19043H190.556C190.545 0.254046 185.423 24.1779 185.401 24.2776H191.515C191.53 24.2119 195.451 5.88831 195.451 5.88831H207.927C207.927 5.88831 204.01 24.1779 203.986 24.2776H222.51L220.051 35.7794H201.624C201.61 35.8472 197.945 52.9812 197.945 52.9812H183.984C183.971 53.0469 182.791 58.66 182.77 58.7554H202.847C202.859 58.6918 206.546 41.5154 206.546 41.5154H224.902C224.917 41.4497 229.795 18.6794 229.817 18.5818H211.352Z" fill="#FF0000"/>
</svg>
