<svg width="236" height="31" viewBox="0 0 236 31" fill="none" xmlns="http://www.w3.org/2000/svg">
<path d="M101.794 19.9922H117.298L109.109 6.99222L94.0523 30.4722H87.2057L105.517 2.30222C105.917 1.74009 106.447 1.28019 107.064 0.961039C107.681 0.641887 108.367 0.472779 109.065 0.467883C109.762 0.462986 110.451 0.622444 111.072 0.932896C111.694 1.24335 112.231 1.69576 112.639 2.25222L131.001 30.4722H124.155L120.93 25.2222H105.243L101.825 19.9922M172.965 25.2222V0.752217H167.146V27.6322C167.145 28.0058 167.221 28.3756 167.37 28.7194C167.519 29.0632 167.737 29.3737 168.011 29.6322C168.287 29.9092 168.616 30.129 168.979 30.2784C169.343 30.4279 169.733 30.504 170.127 30.5022H196.577L200.026 25.2522H172.935M76.7579 20.8522C79.4695 20.8522 82.07 19.7934 83.9874 17.9086C85.9047 16.0239 86.9819 13.4676 86.9819 10.8022C86.9819 8.13679 85.9047 5.58053 83.9874 3.69579C82.07 1.81105 79.4695 0.752217 76.7579 0.752217H51.325V30.4722H57.1339V6.01222H76.4018C77.6996 6.01222 78.9442 6.51898 79.8619 7.42103C80.7796 8.32308 81.2951 9.54653 81.2951 10.8222C81.2951 12.0979 80.7796 13.3214 79.8619 14.2234C78.9442 15.1255 77.6996 15.6322 76.4018 15.6322H60.0129L77.3683 30.4722H85.8018L74.1434 20.8522H76.7579ZM15.5968 30.4722H33.1659C37.106 30.3717 40.8504 28.7625 43.6011 25.9876C46.3517 23.2128 47.8911 19.4916 47.8911 15.6172C47.8911 11.7428 46.3517 8.02168 43.6011 5.24678C40.8504 2.47189 37.106 0.862714 33.1659 0.762217H15.5968C13.5793 0.710757 11.5717 1.05693 9.69239 1.78033C7.81311 2.50373 6.10021 3.5897 4.65471 4.9742C3.20921 6.35871 2.06038 8.01371 1.27595 9.84162C0.49153 11.6695 0.0874023 13.6333 0.0874023 15.6172C0.0874023 17.6011 0.49153 19.5649 1.27595 21.3928C2.06038 23.2207 3.20921 24.8757 4.65471 26.2602C6.10021 27.6447 7.81311 28.7307 9.69239 29.4541C11.5717 30.1775 13.5793 30.5237 15.5968 30.4722ZM32.7691 25.2422H15.9834C13.4438 25.1617 11.0356 24.1134 9.2681 22.319C7.50059 20.5247 6.51234 18.1249 6.51234 15.6272C6.51234 13.1295 7.50059 10.7298 9.2681 8.93539C11.0356 7.14102 13.4438 6.09274 15.9834 6.01222H32.7691C34.0802 5.97065 35.3864 6.18859 36.6101 6.65308C37.8338 7.11757 38.95 7.81913 39.8923 8.71607C40.8347 9.61302 41.584 10.687 42.0958 11.8743C42.6075 13.0615 42.8712 14.3378 42.8712 15.6272C42.8712 16.9166 42.6075 18.1929 42.0958 19.3802C41.584 20.5674 40.8347 21.6414 39.8923 22.5384C38.95 23.4353 37.8338 24.1369 36.6101 24.6014C35.3864 25.0658 34.0802 25.2838 32.7691 25.2422ZM143.138 30.4722H161.073L164.471 25.2422H143.535C142.223 25.2838 140.917 25.0658 139.694 24.6014C138.47 24.1369 137.354 23.4353 136.411 22.5384C135.469 21.6414 134.72 20.5674 134.208 19.3802C133.696 18.1929 133.432 16.9166 133.432 15.6272C133.432 14.3378 133.696 13.0615 134.208 11.8743C134.72 10.687 135.469 9.61302 136.411 8.71607C137.354 7.81913 138.47 7.11757 139.694 6.65308C140.917 6.18859 142.223 5.97065 143.535 6.01222H160.575L164.013 0.762217H143.138C141.12 0.710757 139.113 1.05693 137.233 1.78033C135.354 2.50373 133.641 3.5897 132.196 4.9742C130.75 6.35871 129.601 8.01371 128.817 9.84162C128.032 11.6695 127.628 13.6333 127.628 15.6172C127.628 17.6011 128.032 19.5649 128.817 21.3928C129.601 23.2207 130.75 24.8757 132.196 26.2602C133.641 27.6447 135.354 28.7307 137.233 29.4541C139.113 30.1775 141.12 30.5237 143.138 30.4722ZM214.218 25.2422C212.086 25.243 210.013 24.5598 208.312 23.2963C206.612 22.0328 205.378 20.2582 204.797 18.2422H229.64L233.058 13.0022H204.797C205.376 10.9854 206.61 9.20984 208.311 7.94612C210.011 6.6824 212.086 5.99977 214.218 6.00222H231.268L234.676 0.752217H213.821C209.881 0.852714 206.136 2.46189 203.386 5.23678C200.635 8.01168 199.096 11.7328 199.096 15.6072C199.096 19.4816 200.635 23.2028 203.386 25.9776C206.136 28.7525 209.881 30.3617 213.821 30.4622H231.756L235.164 25.2322H214.207" fill="#B8B8B8"/>
</svg>
