<svg width="257" height="59" viewBox="0 0 257 59" fill="none" xmlns="http://www.w3.org/2000/svg">
<path d="M66.1668 15.0119C66.1668 4.86945 55.4325 0 42.6805 0C29.0137 0 16.5039 6.05319 11.9035 15.4424C10.639 17.9174 9.96644 20.6885 9.96644 23.5133C9.91264 25.9615 10.5852 28.3558 11.9035 30.3736C13.8674 33.2791 17.3917 35.1085 22.5571 35.1085C28.8792 35.1085 33.9101 31.638 33.9101 25.5848C33.9101 25.5848 33.9908 23.8899 32.0268 23.8899C30.4396 23.8899 30.0091 25.0198 30.0629 25.5848C30.3051 30.3197 27.4803 34.1131 22.4764 34.1131C16.8536 34.1131 14.5131 29.3243 14.5131 24.2128C14.5131 13.7475 22.3957 6.80647 30.601 3.79333C34.4481 2.34057 38.4836 1.64109 42.5998 1.69489C51.8813 1.69489 59.4949 5.273 59.4949 14.8236C59.4949 22.7869 52.796 29.5934 44.752 30.2121L45.0748 29.136C46.7159 23.2711 48.7337 16.8413 52.0158 12.1064C52.2041 11.8104 52.527 11.3531 52.9036 10.8957L52.4463 10.3308C51.7468 10.7612 51.0742 11.2186 50.4285 11.7297C35.04 23.7285 34.5826 57.5187 14.0826 57.5187C13.3831 57.5187 12.6837 57.4649 11.9842 57.3842C7.70659 56.6847 5.47363 53.8061 5.47363 49.8245C5.47363 49.0174 5.76957 47.9413 5.76957 47.3494C5.82337 46.2195 4.88177 45.2509 3.75184 45.2509H3.4559C1.62649 45.2509 0.873204 46.7037 0.819398 48.7752C0.684883 54.7208 5.09699 58.1913 11.9035 58.8639C12.6568 58.9177 13.41 58.9446 14.1902 58.9446C30.1974 58.9446 39.9902 46.8382 44.1601 32.1492C46.2586 31.907 48.3839 31.4497 50.4016 30.8309C57.8269 28.7594 66.1668 23.7823 66.1668 15.0119Z" fill="#0064FF"/>
<path d="M218.546 18.5361H212.923L211.658 21.4955L209.452 26.4725H206.816L206.009 28.1673H208.726L205.444 35.4311C203.103 40.5427 199.444 45.5736 197.319 45.5736C196.862 45.5736 196.566 45.3853 196.566 44.9279C196.566 44.4706 196.7 44.0401 197.211 42.7219C197.857 41.1615 198.96 38.9285 199.74 37.2875C200.924 34.8931 202.78 31.1805 202.78 29.3511C202.78 27.5216 201.597 26.069 199.31 26.069C196.727 26.069 194.387 27.6293 192.234 29.8622L193.633 26.4725H188.333L184.029 36.3189C182.28 39.7894 178.783 45.5736 176.577 45.5736C176.119 45.5736 175.931 45.2777 175.931 44.8203C175.985 44.3899 176.066 44.0132 176.254 43.6097C176.442 43.2061 179.025 37.126 179.025 37.126L183.733 26.3649H178.003L173.456 36.8301C172.057 40.0585 168.479 45.5467 166.192 45.5467C165.816 45.6005 165.439 45.3046 165.385 44.901V44.7127C165.385 44.1477 165.816 43.1254 166.138 42.3721L168.533 37.126L173.456 26.3649H167.779L166.65 28.813C165.816 30.4541 164.39 32.3911 162.157 32.3911C161.081 32.3911 160.569 31.9607 160.327 31.5571C160.004 27.9521 157.691 26.0152 154.328 26.0152C149.647 26.0152 146.311 28.7861 144.105 32.149C142.652 34.4895 141.522 36.9915 140.715 39.6011C138.697 42.9371 136.599 45.5198 134.904 45.5198C134.473 45.5198 134.204 45.2777 134.204 44.7127C134.204 44.1477 134.769 42.8833 134.958 42.4259L138.67 34.5433C139.693 32.0952 140.419 30.5079 140.419 28.9206C140.419 27.2257 139.235 26.0152 137.325 26.0152C134.662 26.0152 131.756 27.5755 129.443 30.1043C129.55 29.6739 129.55 29.2972 129.55 28.8937C129.55 27.0105 128.609 26.0421 126.699 26.0421C124.25 26.0421 121.721 27.4947 119.435 30.1312L120.941 26.4725H115.776L111.418 36.3189C109.346 40.9732 106.037 45.5736 104.154 45.5736C103.723 45.5736 103.454 45.3315 103.454 44.7665C103.454 43.8787 104.45 41.6727 104.826 40.7849L110.61 27.71C111.041 26.7147 108.27 26.1228 104.746 26.1228C101.221 26.1228 97.428 27.8983 94.7108 30.212C92.8006 31.7992 91.3748 32.6063 90.6753 32.6063C90.2987 32.6063 90.1642 32.418 90.1642 32.1759C90.1642 31.3688 92.0743 29.1358 92.0743 27.3871C92.0743 26.5801 91.6438 26.069 90.5677 26.069C88.4962 26.069 86.0749 28.0328 84.2724 30.1043L85.7789 26.4994H80.7212L76.3629 36.3459C74.2106 40.8925 70.767 45.735 68.9107 45.735C68.4803 45.735 68.2113 45.4929 68.2113 44.9279C68.2113 44.0401 69.1529 41.8879 69.664 40.758L75.4482 27.6293C75.8786 26.634 73.1076 26.0421 69.5833 26.0421C64.3641 26.0421 59.3063 29.5663 56.6429 33.1713C53.6836 37.0722 51.6659 41.1884 51.6121 44.5782C51.5583 47.2954 52.9841 48.9903 55.782 48.9903C58.9297 48.9903 61.4586 46.5152 62.9113 44.632C62.8037 45.0086 62.7768 45.3853 62.723 45.7619C62.723 47.6451 63.4763 48.9903 65.7631 48.9903C67.7808 48.9903 70.4442 47.2954 72.6234 44.632L70.8747 48.6136H76.3629L81.7704 36.3728C83.546 32.3911 85.5637 30.3196 86.1287 30.3196C86.317 30.3196 86.4246 30.4272 86.4246 30.5617C86.4246 30.9921 85.5906 32.1221 85.5906 33.1444C85.5906 34.1667 86.1556 34.9738 87.6622 34.9738C88.8459 34.9738 90.1372 34.4088 91.321 33.6555C88.55 37.422 86.6668 41.3498 86.6668 44.5782C86.6129 47.2954 88.0388 48.9903 90.8367 48.9903C93.7961 48.9903 96.5671 46.1655 98.0737 44.3092C98.0198 44.7396 97.966 45.1432 97.966 45.6274C97.966 47.4568 98.9883 49.0172 101.114 49.0172C103.454 49.0172 105.337 47.5644 107.678 44.7127L105.929 48.6406H111.552L116.717 36.9646C118.977 31.9068 122.017 29.1896 123.524 29.1896C123.901 29.1358 124.223 29.4318 124.277 29.8084V29.9429C124.223 30.5079 124.035 31.0729 123.82 31.584L116.395 48.7213H122.152L127.398 36.8032C129.658 31.6916 132.133 29.2165 134.016 29.2165C134.581 29.2165 134.823 29.5125 134.823 30.1043C134.769 30.75 134.581 31.4226 134.312 31.9876L129.254 42.7757C128.797 43.798 128.501 44.9279 128.42 46.0579C128.42 47.6989 129.308 49.1517 131.837 49.1517C135.119 49.1517 137.621 46.6766 140.419 42.964V43.7711C140.661 46.7304 142.302 49.3131 146.661 49.3131C151.826 49.3131 155.996 45.735 158.525 40.0854C159.466 38.0676 160.112 35.9692 160.354 33.7363C160.919 34.0322 161.565 34.1667 162.184 34.1129C163.018 34.1129 163.879 33.9246 164.632 33.4941L163.744 35.4042C162.722 37.5565 161.592 39.9509 160.704 41.9686C160.139 43.1523 159.816 44.4437 159.709 45.7619C159.709 47.7797 160.838 49.2324 163.125 49.2324C165.412 49.2324 168.56 47.0802 170.82 44.0132H170.873C170.739 44.632 170.631 45.2777 170.631 45.9233C170.631 47.6182 171.142 49.2055 173.483 49.2055C176.2 49.2055 178.325 47.2416 180.37 44.7396L178.621 48.6675H184.298L188.845 38.3367C191.427 32.5256 194.01 29.0013 196.404 29.0013C196.835 29.0013 197.158 29.2703 197.211 29.7008V29.8353C197.211 30.8307 195.812 33.4941 194.548 36.1575C193.364 38.6057 192.476 40.462 191.885 41.9417C191.32 43.1523 190.997 44.4706 190.889 45.8426C190.889 47.6182 191.885 48.9903 194.091 48.9903C197.373 48.9903 200.709 45.7888 202.484 43.4214C202.054 44.6051 201.866 45.7619 201.839 46.9995C201.839 50.2816 203.803 51.9227 206.574 51.9227C208.403 51.9227 210.179 51.304 211.685 50.2278C213.838 48.7213 215.586 46.4614 217.039 44.4168L216.044 43.4752C214.672 45.4122 213.192 47.2416 211.631 48.3446C210.797 49.0441 209.802 49.4207 208.726 49.4745C207.542 49.4745 206.816 48.8558 206.816 47.3761C206.816 45.8964 207.515 43.8518 208.591 41.1346C208.645 41.0808 210.179 37.6103 211.631 34.2743C212.842 31.4495 214.08 28.7323 214.295 28.1673H218.007L218.761 26.4725H215.102L218.546 18.5361ZM58.5261 45.6005C57.7191 45.6005 57.1541 45.3315 57.1541 44.2823C57.2079 41.5112 59.4947 36.588 62.3733 32.6601C64.391 29.9429 67.0275 27.9252 69.8254 27.9252L66.2473 35.8885C63.5839 41.8879 60.6784 45.6005 58.5261 45.6005ZM93.6077 45.6005C92.8006 45.6005 92.2357 45.3315 92.2088 44.2823C92.2626 41.5112 94.5494 36.588 97.428 32.6601C99.4457 29.9429 102.082 27.9252 104.88 27.9252L101.302 35.8885C98.5848 42.0224 95.8138 45.6005 93.6077 45.6005ZM155.915 30.0774C155.781 33.1175 153.09 40.4889 149.97 44.901C148.705 46.6766 147.629 47.1878 146.687 47.1878C145.369 47.1878 144.993 46.1117 145.181 44.5244C145.45 41.7534 147.764 35.2697 150.965 30.8307C152.418 28.813 153.413 27.979 154.543 27.979C155.673 27.979 155.969 28.8937 155.915 30.0774Z" fill="#0064FF"/>
<path d="M243.485 26.4464L248.623 14.5283H242.516L237.351 26.4464H224.357L222.205 31.4503H235.199L230.033 43.3953H236.14L241.306 31.4503H254.3L256.479 26.4464H243.485Z" fill="#0064FF"/>
</svg>
