<svg width="28" height="28" viewBox="0 0 28 28" fill="none" xmlns="http://www.w3.org/2000/svg">
<path fill-rule="evenodd" clip-rule="evenodd" d="M14.0001 0.666992C10.3787 0.666992 9.92541 0.682103 8.50319 0.746992C7.08364 0.811881 6.11386 1.03766 5.26586 1.36744C4.37697 1.70166 3.57075 2.2261 2.90408 2.90521C2.22606 3.57111 1.70129 4.37677 1.3663 5.2661C1.0383 6.1141 0.811637 7.08477 0.746748 8.50433C0.682748 9.92566 0.666748 10.3781 0.666748 14.0003C0.666748 17.6225 0.681859 18.075 0.746748 19.4972C0.811637 20.9168 1.03741 21.8865 1.36719 22.7345C1.70141 23.6234 2.22586 24.4297 2.90497 25.0963C3.57088 25.7743 4.37653 26.2991 5.26586 26.6341C6.11386 26.963 7.08364 27.1888 8.50319 27.2537C9.92541 27.3185 10.3787 27.3337 14.0001 27.3337C17.6214 27.3337 18.0747 27.3185 19.497 27.2537C20.9165 27.1888 21.8863 26.963 22.7343 26.6332C23.6232 26.299 24.4294 25.7745 25.0961 25.0954C25.7741 24.4295 26.2989 23.6239 26.6339 22.7345C26.9627 21.8865 27.1885 20.9168 27.2534 19.4972C27.3183 18.075 27.3334 17.6217 27.3334 14.0003C27.3334 10.379 27.3183 9.92566 27.2534 8.50344C27.1885 7.08388 26.9627 6.1141 26.633 5.2661C26.2982 4.37638 25.7734 3.57039 25.0952 2.90433C24.4293 2.2263 23.6236 1.70153 22.7343 1.36655C21.8863 1.03855 20.9156 0.811881 19.4961 0.746992C18.0747 0.682992 17.6223 0.666992 14.0001 0.666992ZM14.0001 3.06966C17.5601 3.06966 17.9823 3.08299 19.3885 3.14699C20.6881 3.20655 21.3939 3.42255 21.8641 3.60655C22.4863 3.84744 22.9307 4.13721 23.3974 4.60299C23.8641 5.06966 24.153 5.5141 24.3939 6.13633C24.577 6.60655 24.7939 7.31233 24.8534 8.61188C24.9174 10.0181 24.9307 10.4403 24.9307 14.0003C24.9307 17.5603 24.9174 17.9825 24.8534 19.3888C24.7939 20.6883 24.5779 21.3941 24.3939 21.8643C24.1805 22.4435 23.84 22.9674 23.3974 23.3977C22.9673 23.8403 22.4433 24.1808 21.8641 24.3941C21.3939 24.5772 20.6881 24.7941 19.3885 24.8537C17.9823 24.9177 17.561 24.931 14.0001 24.931C10.4392 24.931 10.0179 24.9177 8.61164 24.8537C7.31208 24.7941 6.6063 24.5781 6.13608 24.3941C5.55693 24.1807 5.03298 23.8402 4.60275 23.3977C4.16024 22.9674 3.81975 22.4434 3.6063 21.8643C3.42319 21.3941 3.2063 20.6883 3.14675 19.3888C3.08275 17.9825 3.06941 17.5603 3.06941 14.0003C3.06941 10.4403 3.08275 10.0181 3.14675 8.61188C3.2063 7.31233 3.4223 6.60655 3.6063 6.13633C3.84719 5.5141 4.13697 5.06966 4.60275 4.60299C5.03292 4.16037 5.55689 3.81986 6.13608 3.60655C6.6063 3.42344 7.31208 3.20655 8.61164 3.14699C10.0179 3.08299 10.4401 3.06966 14.0001 3.06966Z" fill="#B8B8B8"/>
<path fill-rule="evenodd" clip-rule="evenodd" d="M14.0001 18.4492C13.4159 18.4492 12.8373 18.3341 12.2976 18.1106C11.7578 17.887 11.2674 17.5593 10.8543 17.1462C10.4411 16.733 10.1134 16.2426 9.88986 15.7028C9.66629 15.1631 9.55121 14.5846 9.55121 14.0003C9.55121 13.4161 9.66629 12.8376 9.88986 12.2978C10.1134 11.758 10.4411 11.2676 10.8543 10.8545C11.2674 10.4414 11.7578 10.1137 12.2976 9.89009C12.8373 9.66651 13.4159 9.55144 14.0001 9.55144C15.18 9.55144 16.3116 10.0202 17.1459 10.8545C17.9803 11.6888 18.449 12.8204 18.449 14.0003C18.449 15.1802 17.9803 16.3118 17.1459 17.1462C16.3116 17.9805 15.18 18.4492 14.0001 18.4492ZM14.0001 7.14699C12.1825 7.14699 10.4393 7.86904 9.15406 9.15429C7.86881 10.4395 7.14677 12.1827 7.14677 14.0003C7.14677 15.8179 7.86881 17.5611 9.15406 18.8464C10.4393 20.1316 12.1825 20.8537 14.0001 20.8537C15.8177 20.8537 17.5609 20.1316 18.8461 18.8464C20.1314 17.5611 20.8534 15.8179 20.8534 14.0003C20.8534 12.1827 20.1314 10.4395 18.8461 9.15429C17.5609 7.86904 15.8177 7.14699 14.0001 7.14699ZM22.8472 7.02255C22.8472 7.4522 22.6765 7.86425 22.3727 8.16806C22.0689 8.47187 21.6569 8.64255 21.2272 8.64255C20.7976 8.64255 20.3855 8.47187 20.0817 8.16806C19.7779 7.86425 19.6072 7.4522 19.6072 7.02255C19.6072 6.5929 19.7779 6.18084 20.0817 5.87703C20.3855 5.57323 20.7976 5.40255 21.2272 5.40255C21.6569 5.40255 22.0689 5.57323 22.3727 5.87703C22.6765 6.18084 22.8472 6.5929 22.8472 7.02255Z" fill="#B8B8B8"/>
</svg>
