<svg width="28" height="28" viewBox="0 0 28 28" fill="none" xmlns="http://www.w3.org/2000/svg">
<path d="M27.3334 2.62729V25.3724C27.3334 25.8924 27.1268 26.3912 26.7591 26.7589C26.3914 27.1266 25.8927 27.3332 25.3726 27.3332H2.62753C2.1075 27.3332 1.60877 27.1266 1.24105 26.7589C0.87333 26.3912 0.666748 25.8924 0.666748 25.3724L0.666748 2.62729C0.666748 2.10726 0.87333 1.60852 1.24105 1.2408C1.60877 0.873086 2.1075 0.666504 2.62753 0.666504L25.3726 0.666504C25.8927 0.666504 26.3914 0.873086 26.7591 1.2408C27.1268 1.60852 27.3334 2.10726 27.3334 2.62729ZM8.50989 10.8626H4.58832V23.4116H8.50989V10.8626ZM8.86283 6.54886C8.86489 6.25222 8.80851 5.95808 8.6969 5.68324C8.58529 5.4084 8.42064 5.15823 8.21234 4.94702C8.00404 4.73581 7.75619 4.5677 7.48292 4.45228C7.20965 4.33686 6.91632 4.2764 6.61969 4.27435H6.5491C5.94586 4.27435 5.36733 4.51398 4.94078 4.94054C4.51423 5.36709 4.27459 5.94562 4.27459 6.54886C4.27459 7.15209 4.51423 7.73062 4.94078 8.15718C5.36733 8.58373 5.94586 8.82337 6.5491 8.82337C6.84576 8.83066 7.14094 8.77944 7.41779 8.67262C7.69464 8.56579 7.94773 8.40546 8.1626 8.20079C8.37747 7.99612 8.5499 7.75112 8.67005 7.47979C8.7902 7.20845 8.8557 6.9161 8.86283 6.61945V6.54886ZM23.4118 15.7881C23.4118 12.0155 21.0118 10.5489 18.6275 10.5489C17.8469 10.5098 17.0696 10.676 16.3732 11.0311C15.6769 11.3862 15.0858 11.9176 14.6589 12.5724H14.5491V10.8626H10.8628V23.4116H14.7844V16.7371C14.7277 16.0535 14.943 15.3752 15.3836 14.8494C15.8242 14.3237 16.4544 13.993 17.1373 13.9292H17.2864C18.5334 13.9292 19.4589 14.7136 19.4589 16.69V23.4116H23.3805L23.4118 15.7881Z" fill="#B8B8B8"/>
</svg>
