<svg width="28" height="23" viewBox="0 0 28 23" fill="none" xmlns="http://www.w3.org/2000/svg">
<path d="M27.3334 2.89963C26.3528 3.33417 25.2993 3.62778 24.1918 3.76049C25.3216 3.08402 26.1883 2.01059 26.597 0.732803C25.5401 1.35995 24.3691 1.81563 23.1231 2.05991C22.1248 0.998225 20.7037 0.333496 19.13 0.333496C16.1094 0.333496 13.6595 2.78336 13.6595 5.80635C13.6595 6.23385 13.7088 6.6496 13.8004 7.05125C9.25185 6.82224 5.22237 4.64366 2.52353 1.33411C2.05375 2.14447 1.78363 3.08402 1.78363 4.08463C1.78363 5.98252 2.75019 7.65843 4.21706 8.63908C3.31979 8.60972 2.47655 8.36427 1.73901 7.95439V8.02486C1.73901 10.6755 3.62397 12.887 6.12786 13.3897C5.66748 13.5142 5.18479 13.5799 4.68683 13.5799C4.3345 13.5799 3.99039 13.547 3.65685 13.4836C4.35329 15.6563 6.37332 17.2395 8.76798 17.2817C6.89476 18.7498 4.53533 19.6247 1.97272 19.6247C1.53113 19.6247 1.09542 19.5989 0.666748 19.5484C3.08843 21.1022 5.96344 22.0065 9.0522 22.0065C19.1171 22.0065 24.6193 13.6704 24.6193 6.44055C24.6193 6.20566 24.6134 5.96842 24.6029 5.73354C25.6716 4.96076 26.5994 3.9989 27.3311 2.90315L27.3334 2.89963Z" fill="#B8B8B8"/>
</svg>
